<svg width="24" height="24" xmlns="http://www.w3.org/2000/svg" version="1.1" xml:space="preserve">
 <g>
  <title>Layer 1</title>
  <path stroke="null" d="m23.06846,20.44729l-8.55682,-8.5572l8.51043,-8.51043c0.69402,-0.6944 0.69402,-1.82005 0,-2.51407c-0.6944,-0.69402 -1.81967,-0.69402 -2.51407,0l-8.51043,8.51043l-8.51005,-8.51043c-0.6944,-0.69402 -1.81967,-0.69402 -2.51407,0c-0.6944,0.6944 -0.6944,1.82005 0,2.51407l8.51005,8.51043l-8.55758,8.5572c-0.6944,0.6944 -0.6944,1.81967 0,2.51407c0.3472,0.3472 0.80202,0.52061 1.25723,0.52061s0.91002,-0.17341 1.25723,-0.52061l8.5572,-8.5572l8.55682,8.5572c0.3472,0.3472 0.80202,0.52061 1.25723,0.52061s0.91002,-0.17341 1.25723,-0.52061c0.69364,-0.69402 0.69364,-1.81967 -0.00038,-2.51407z" fill="#ff0000" id="svg_1"/>
 </g>

</svg>