<svg width="24" height="24" xmlns="http://www.w3.org/2000/svg" xml:space="preserve" version="1.1">

 <g>
  <title>Layer 1</title>
  <path fill="#6D97AB" stroke="null" id="svg_1" d="m20.92943,6.04401c1.64484,0 2.97708,-1.33224 2.97708,-2.97708c0,-1.64484 -1.33224,-2.97708 -2.97708,-2.97708s-2.97708,1.33224 -2.97708,2.97708c0,0.83656 0.34683,1.58976 0.90206,2.1301l-2.34892,4.10986c-0.47931,-0.17565 -0.98988,-0.2858 -1.53022,-0.2858c-1.19083,0 -2.26705,0.47336 -3.06788,1.234l-6.08962,-4.56685c0.14439,-0.34981 0.22626,-0.73087 0.22626,-1.13278c0,-1.64484 -1.33224,-2.97708 -2.97708,-2.97708s-2.97708,1.33224 -2.97708,2.97708c0,1.64484 1.33224,2.97708 2.97708,2.97708c0.70259,0 1.33969,-0.25305 1.84877,-0.65942l6.106,4.58024c-0.31706,0.61179 -0.51206,1.29652 -0.51206,2.03335c0,0.46591 0.09229,0.90801 0.22477,1.33076l-6.38733,3.43407c-0.39,-0.18607 -0.82019,-0.2992 -1.28015,-0.2992c-1.64484,0 -2.97708,1.33224 -2.97708,2.97708c0,1.64484 1.33224,2.97708 2.97708,2.97708s2.97708,-1.33224 2.97708,-2.97708c0,-0.60435 -0.18309,-1.16553 -0.49271,-1.63591l5.85444,-3.14827c0.81423,1.0911 2.10331,1.80709 3.56952,1.80709c0.74129,0 1.43049,-0.19798 2.04675,-0.51801l1.45431,1.81156c-0.32897,0.47931 -0.52397,1.05835 -0.52397,1.68354c0,1.64484 1.33224,2.97708 2.97708,2.97708s2.97708,-1.33224 2.97708,-2.97708c0,-1.64484 -1.33224,-2.97708 -2.97708,-2.97708c-0.47782,0 -0.9229,0.12355 -1.32331,0.32301l-1.3903,-1.73266c0.75469,-0.79935 1.22507,-1.86961 1.22507,-3.05598c0,-1.3903 -0.649,-2.61686 -1.64484,-3.43555l2.35636,-4.12326c0.24859,0.06847 0.5061,0.11611 0.77702,0.11611z"/>
 </g>
</svg>