<svg width="64" height="64" xmlns="http://www.w3.org/2000/svg" version="1.1" enable-background="new 0 0 40 40" xml:space="preserve">
 <g>
  <title>Layer 1</title>
  <path stroke="null" fill="#ffffff" d="m59.22926,10.43677c0,-2.14306 -1.49201,-5.18811 -8.60842,-7.54367c-4.97109,-1.64573 -11.54722,-2.54997 -18.51895,-2.54997c-6.96947,0 -13.54786,0.90425 -18.51895,2.54997c-7.11415,2.3533 -8.60842,5.40061 -8.60842,7.54367c0,0.01808 0,0.03165 0.00226,0.04973c0,0.00904 -0.00226,0.01808 -0.00226,0.02035l0,14.30064c0,0.01582 0,0.03165 0.00226,0.05199c0,0.00678 -0.00226,0.01356 -0.00226,0.01808l0,14.29838c0,0.01808 0,0.03617 0.00226,0.05199c0,0.00678 -0.00226,0.01582 -0.00226,0.02261l0,14.29612c0,2.1408 1.49427,5.18811 8.60842,7.54367c4.97109,1.64573 11.54948,2.54997 18.51895,2.54997c6.97173,0 13.54786,-0.90425 18.51895,-2.54997c7.11641,-2.35556 8.60842,-5.40287 8.60842,-7.54367l0,-14.29612c0,-0.00678 0,-0.01582 0,-0.02261c0,-0.01808 0,-0.03617 0,-0.05199l0,-14.29838c0,-0.00452 0,-0.0113 0,-0.01808c0,-0.02035 0,-0.03617 0,-0.05199l0,-14.30064c0,-0.00226 0,-0.0113 0,-0.02035c0,-0.01808 0,-0.03165 0,-0.04973zm-3.39092,43.10991c0,2.74665 -9.24591,6.72985 -23.73645,6.72985s-23.73645,-3.9832 -23.73645,-6.72985l0,-9.16001c1.25916,0.83869 2.95236,1.65477 5.2175,2.40303c4.97109,1.64799 11.54948,2.55223 18.51895,2.55223c6.97173,0 13.54786,-0.90425 18.51895,-2.55223c2.26287,-0.74826 3.95833,-1.56434 5.2175,-2.40303l0,9.16001zm0,-14.37072c0,2.74439 -9.24591,6.72985 -23.73645,6.72985s-23.73645,-3.98546 -23.73645,-6.72985l0,-9.16001c1.25916,0.83869 2.95236,1.65703 5.2175,2.40755c4.97109,1.64573 11.54948,2.54771 18.51895,2.54771c6.97173,0 13.54786,-0.90425 18.51895,-2.54771c2.26287,-0.75052 3.95833,-1.56887 5.2175,-2.40755l0,9.16001zm0,-14.36846c0,2.74212 -9.24591,6.72533 -23.73645,6.72533s-23.73645,-3.9832 -23.73645,-6.72533l0,-9.16227c1.25916,0.83869 2.95236,1.65703 5.2175,2.40755c4.97109,1.64573 11.54948,2.54997 18.51895,2.54997c6.97173,0 13.54786,-0.90425 18.51895,-2.54997c2.26287,-0.75052 3.95833,-1.56887 5.2175,-2.40755l0,9.16227zm-23.73645,-7.6454c-14.49054,0 -23.73645,-3.9832 -23.73645,-6.72533c0,-2.74439 9.24591,-6.72759 23.73645,-6.72759s23.73645,3.9832 23.73645,6.72759c0,2.74212 -9.24591,6.72533 -23.73645,6.72533z" id="svg_1"/>
 </g>

</svg>