<svg width="24" height="25" xmlns="http://www.w3.org/2000/svg" xml:space="preserve" version="1.1">

 <g>
  <title>Layer 1</title>
  <g stroke="null" id="svg_1">
   <path fill="#ffffff" stroke="null" id="svg_2" d="m2.23359,6.87279c0.57074,0.30093 8.49878,4.62296 8.79452,4.77862c0.29575,0.15566 0.59668,0.22829 1.06364,0.22829c0.46697,0 0.7679,-0.07264 1.06364,-0.22829c0.29575,-0.15566 8.22379,-4.47768 8.79452,-4.77862c0.21273,-0.10896 0.57074,-0.30612 0.64856,-0.52923c0.1349,-0.39433 -0.01038,-0.54479 -0.5863,-0.54479l-9.92043,0l-9.92043,0c-0.57592,0 -0.7212,0.15566 -0.5863,0.54479c0.07783,0.22829 0.43583,0.42027 0.64856,0.52923z"/>
   <path fill="#ffffff" stroke="null" id="svg_3" d="m22.40133,7.10628c-0.42546,0.21792 -4.2442,2.9367 -6.77101,4.57108l4.26496,4.79937c0.10377,0.10377 0.15047,0.22829 0.09339,0.29056c-0.06226,0.05707 -0.19716,0.02594 -0.30612,-0.07264l-5.11587,-4.31684c-0.77309,0.4981 -1.31788,0.84054 -1.41127,0.89242c-0.39952,0.20235 -0.67969,0.22829 -1.06364,0.22829c-0.38395,0 -0.66413,-0.02594 -1.06364,-0.22829c-0.09858,-0.05189 -0.63819,-0.39433 -1.41127,-0.89242l-5.11587,4.31684c-0.10377,0.10377 -0.24386,0.1349 -0.30612,0.07264c-0.06226,-0.05707 -0.01557,-0.18679 0.0882,-0.29056l4.25977,-4.79937c-2.5268,-1.63438 -6.38706,-4.35316 -6.81251,-4.57108c-0.45659,-0.23348 -0.48253,0.04151 -0.48253,0.25424c0,0.21273 0,10.63645 0,10.63645c0,0.48253 0.71083,1.0844 1.2193,1.0844l9.62469,0l9.62469,0c0.50847,0 1.11553,-0.60706 1.11553,-1.0844c0,0 0,-10.4289 0,-10.63645c0,-0.21792 0.03113,-0.48772 -0.43065,-0.25424z"/>
  </g>
 </g>
</svg>