<svg width="24" height="24" xmlns="http://www.w3.org/2000/svg" clip-rule="evenodd" xml:space="preserve" version="1.1">

 <g>
  <title>Layer 1</title>
  <path stroke="null" fill="#ffffff" id="svg_1" d="m20.97212,0.11008c1.60256,0 2.90358,1.30108 2.90358,2.90358l0,17.95846c0,1.60251 -1.30108,2.90358 -2.90358,2.90358l-4.94195,0l0,-8.95458l3.09139,0l0.5882,-3.83504l-3.67959,0l0,-2.48875c0,-1.04917 0.51398,-2.07188 2.16211,-2.07188l1.67297,0l0,-3.26499c0,0 -1.51831,-0.2591 -2.96987,-0.2591c-3.03049,0 -5.0112,1.83668 -5.0112,5.16178l0,2.92294l-3.36864,0l0,3.83504l3.36864,0l0,8.95458l-8.87052,0c-1.60251,0 -2.90358,-1.30108 -2.90358,-2.90358l0,-17.95846c0,-1.60251 1.30103,-2.90358 2.90358,-2.90358l17.95846,0z"/>
 </g>
</svg>