<svg width="64" height="64" xmlns="http://www.w3.org/2000/svg">

 <g>
  <title>Layer 1</title>
  <g stroke="null" data-name="Layer 46" id="Layer_46">
   <path fill="#ffffff" stroke="null" id="svg_1" d="m60.55985,45.57256a10.40326,10.40326 0 0 0 -10.61002,-2.5464l-28.97896,-28.97896c2.55729,-7.38893 -4.35283,-15.13696 -11.97028,-13.49377a1.08821,1.08821 0 0 0 -0.85968,1.17526a1.24056,1.24056 0 0 0 0.3047,0.66381l4.35283,4.35283l-1.28408,4.60312l-4.64664,1.24056l-4.35283,-4.35283a1.19703,1.19703 0 0 0 -0.83792,-0.26117a1.08821,1.08821 0 0 0 -0.95762,0.85968c-1.68672,7.61745 6.20278,14.59286 13.51553,11.97028l28.95719,28.97896c-2.56817,7.38893 4.35283,15.13696 11.97028,13.49377a1.08821,1.08821 0 0 0 0.85968,-1.17526a1.24056,1.24056 0 0 0 -0.3047,-0.66381l-4.35283,-4.35283l1.28408,-4.60312l4.64664,-1.24056l4.35283,4.35283a1.40379,1.40379 0 0 0 0.77263,0.32646l0,0a1.08821,1.08821 0 0 0 1.08821,-0.88145a10.43591,10.43591 0 0 0 -2.94904,-9.4674z"/>
   <path fill="#ffffff" stroke="null" id="svg_2" d="m34.78023,23.91724l5.31045,5.31045a1.08821,1.08821 0 0 0 1.54525,0l7.98744,-8.00921c7.48687,2.65523 15.45254,-4.43989 13.74406,-12.15527a1.08821,1.08821 0 0 0 -0.95762,-0.85968a1.19703,1.19703 0 0 0 -0.88145,0.3047l-4.35283,4.35283l-4.74458,-1.2732l-1.31673,-4.70106l4.35283,-4.35283a1.1535,1.1535 0 0 0 0.29382,-0.88145a1.08821,1.08821 0 0 0 -0.82704,-1.02291c-7.7698,-1.67584 -14.74521,6.25719 -12.14439,13.72229l-8.00921,8.02009a1.08821,1.08821 0 0 0 0,1.54525z"/>
   <path fill="#ffffff" stroke="null" id="svg_3" d="m24.08315,34.61432a1.08821,1.08821 0 0 0 -1.54525,0l-8.58596,8.58596c-10.16386,-3.05786 -17.8466,9.48917 -10.30532,17.15015s20.25154,-0.14147 17.16103,-10.30532l8.58596,-8.57507a1.08821,1.08821 0 0 0 0,-1.54525l-5.31045,-5.31045zm-7.61745,17.53102l-1.19703,4.47253a1.08821,1.08821 0 0 1 -0.77263,0.77263l-4.47253,1.19703a1.08821,1.08821 0 0 1 -1.08821,-0.28293l-3.26462,-3.26462a1.08821,1.08821 0 0 1 -0.28293,-1.08821l1.19703,-4.47253a1.08821,1.08821 0 0 1 0.77263,-0.77263l4.47253,-1.19703a1.08821,1.08821 0 0 1 1.08821,0.28293l3.26462,3.26462a1.08821,1.08821 0 0 1 0.28293,1.08821z"/>
  </g>
 </g>
</svg>