<svg width="24" height="24" xmlns="http://www.w3.org/2000/svg" preserveAspectRatio="xMidYMid" version="1.1">

 <g>
  <title>Layer 1</title>
  <g stroke="null" id="svg_1">
   <path stroke="null" id="svg_2" fill="#DE4C36" d="m23.25102,10.95271l-10.21375,-10.21298c-0.58778,-0.58829 -1.54183,-0.58829 -2.13038,0l-2.12088,2.12088l2.69044,2.69044c0.62525,-0.21124 1.34214,-0.06956 1.8406,0.4289c0.50077,0.50154 0.64142,1.22458 0.42505,1.85189l2.5929,2.5929c0.62731,-0.21612 1.35112,-0.07623 1.85215,0.42556c0.7002,0.69994 0.7002,1.83444 0,2.53489c-0.70046,0.70046 -1.83495,0.70046 -2.53566,0c-0.52669,-0.5272 -0.65682,-1.30081 -0.39014,-1.94968l-2.41811,-2.41811l-0.00026,6.36342c0.17069,0.0847 0.33188,0.19738 0.47407,0.33906c0.7002,0.69995 0.7002,1.83444 0,2.53541c-0.70046,0.7002 -1.83546,0.7002 -2.53489,0c-0.7002,-0.70097 -0.7002,-1.83546 0,-2.53541c0.173,-0.17274 0.3732,-0.30339 0.58675,-0.39117l0,-6.42271c-0.21355,-0.08727 -0.4135,-0.21714 -0.58675,-0.39117c-0.53054,-0.52977 -0.65811,-1.30826 -0.38629,-1.95969l-2.65194,-2.65245l-7.0033,7.00278c-0.58855,0.58881 -0.58855,1.54286 0,2.13115l10.21375,10.21324c0.58804,0.58829 1.54183,0.58829 2.13063,0l10.16601,-10.16576c0.58829,-0.58855 0.58829,-1.54311 0,-2.13141"/>
  </g>
 </g>
</svg>