<svg width="24" height="24" xmlns="http://www.w3.org/2000/svg" xml:space="preserve" version="1.1">

 <g>
  <title>Layer 1</title>
  <path stroke="null" id="svg_1" fill="#5C6BC0" d="m11.96363,0.41874c-6.50196,0 -11.77478,5.29342 -11.77478,11.82335c0,5.22277 3.3739,9.65358 8.05495,11.21835c0.58881,0.10893 0.80373,-0.25613 0.80373,-0.56968c0,-0.28116 -0.0103,-1.02453 -0.01619,-2.01079c-3.27527,0.71394 -3.96712,-1.58538 -3.96712,-1.58538c-0.53435,-1.36604 -1.30716,-1.72964 -1.30716,-1.72964c-1.07017,-0.73307 0.07949,-0.71835 0.07949,-0.71835c1.18204,0.08391 1.80324,1.21884 1.80324,1.21884c1.05103,1.80618 2.75711,1.28508 3.42836,0.98184c0.10599,-0.76398 0.4107,-1.28508 0.74779,-1.58096c-2.61433,-0.29882 -5.36408,-1.31305 -5.36408,-5.84249c0,-1.29097 0.45927,-2.34642 1.21295,-3.1737c-0.12218,-0.29882 -0.52552,-1.50147 0.11482,-3.12807c0,0 0.9892,-0.31796 3.23847,1.21148c0.93916,-0.26202 1.94603,-0.39303 2.94848,-0.39745c0.99951,0.00589 2.00785,0.13543 2.94848,0.39892c2.24779,-1.52944 3.23552,-1.21148 3.23552,-1.21148c0.64181,1.62807 0.23847,2.82924 0.11776,3.12807c0.75515,0.82728 1.21001,1.88273 1.21001,3.1737c0,4.54122 -2.7527,5.54072 -5.37586,5.83366c0.42247,0.36506 0.79931,1.08636 0.79931,2.18891c0,1.58096 -0.01472,2.85574 -0.01472,3.24288c0,0.31649 0.21197,0.68449 0.80962,0.5682c4.6737,-1.56624 8.04465,-5.99558 8.04465,-11.21688c0,-6.52993 -5.27282,-11.82335 -11.77772,-11.82335z"/>
  <g id="svg_2"/>
  <g id="svg_3"/>
  <g id="svg_4"/>
  <g id="svg_5"/>
  <g id="svg_6"/>
  <g id="svg_7"/>
  <g id="svg_8"/>
  <g id="svg_9"/>
  <g id="svg_10"/>
  <g id="svg_11"/>
  <g id="svg_12"/>
  <g id="svg_13"/>
  <g id="svg_14"/>
  <g id="svg_15"/>
  <g id="svg_16"/>
 </g>
</svg>