<svg width="23.999999999999996" height="23.999999999999996" xmlns="http://www.w3.org/2000/svg" clip-rule="evenodd" xml:space="preserve" version="1.1">

 <g>
  <title>Layer 1</title>
  <path fill="#ffffff" stroke="null" id="svg_1" d="m21.06458,0c1.61811,0 2.93177,1.31371 2.93177,2.93177l0,18.1328c0,1.61807 -1.31371,2.93177 -2.93177,2.93177l-18.1328,0c-1.61807,0 -2.93177,-1.31371 -2.93177,-2.93177l0,-18.1328c0,-1.61807 1.31366,-2.93177 2.93177,-2.93177l18.1328,0zm-13.54411,19.83814l0,-10.57888l-3.51697,0l0,10.57888l3.51697,0zm12.67959,0l0,-6.06653c0,-3.24949 -1.73495,-4.76112 -4.04849,-4.76112c-1.86553,0 -2.70118,1.02598 -3.16906,1.74658l0,-1.4978l-3.51607,0c0.04663,0.99271 0,10.57888 0,10.57888l3.51603,0l0,-5.90798c0,-0.31626 0.02278,-0.63234 0.11595,-0.85839c0.25374,-0.63154 0.8327,-1.28577 1.80413,-1.28577c1.27176,0 1.78131,0.97049 1.78131,2.392l0,5.66014l3.51622,0zm-14.41431,-15.67993c-1.20329,0 -1.98945,0.79108 -1.98945,1.82794c0,1.01506 0.76226,1.82794 1.94291,1.82794l0.02268,0c1.2263,0 1.98963,-0.81288 1.98963,-1.82794c-0.02273,-1.03541 -0.76118,-1.82569 -1.96578,-1.82794z"/>
 </g>
</svg>