<svg width="32" height="32" xmlns="http://www.w3.org/2000/svg" xml:space="preserve" version="1.1">

 <g>
  <title>Layer 1</title>
  <path fill="#ffffff" stroke="null" id="svg_1" d="m2.54945,9.21978l26.9011,0c1.23745,0 2.24176,-1.00431 2.24176,-2.24176s-1.00431,-2.24176 -2.24176,-2.24176l-26.9011,0c-1.23745,0 -2.24176,1.00431 -2.24176,2.24176s1.00431,2.24176 2.24176,2.24176zm26.9011,4.48352l-26.9011,0c-1.23745,0 -2.24176,1.00431 -2.24176,2.24176s1.00431,2.24176 2.24176,2.24176l26.9011,0c1.23745,0 2.24176,-1.00431 2.24176,-2.24176s-1.00431,-2.24176 -2.24176,-2.24176zm0,8.96703l-26.9011,0c-1.23745,0 -2.24176,1.00431 -2.24176,2.24176s1.00431,2.24176 2.24176,2.24176l26.9011,0c1.23745,0 2.24176,-1.00431 2.24176,-2.24176s-1.00431,-2.24176 -2.24176,-2.24176z"/>
 </g>
</svg>