<svg width="64" height="64" xmlns="http://www.w3.org/2000/svg" xml:space="preserve" version="1.1">

 <g>
  <title>Layer 1</title>
  <g stroke="null" id="svg_1">
   <path fill="#ffffff" stroke="null" id="svg_2" d="m49.45722,2.29519c-1.24681,-1.24819 -2.72494,-1.8716 -4.43214,-1.8716l-25.21496,0c-1.70772,0 -3.18499,0.62392 -4.43266,1.8716c-1.24767,1.24698 -1.8716,2.72477 -1.8716,4.43197l0,50.43147c0,1.70703 0.62392,3.18464 1.8716,4.43197c1.24767,1.24785 2.72494,1.87194 4.43266,1.87194l25.21496,0c1.70703,0 3.18533,-0.62461 4.43197,-1.87194c1.24785,-1.24733 1.87194,-2.72494 1.87194,-4.43197l0,-50.43147c0,-1.70721 -0.62323,-3.1843 -1.87177,-4.43197zm-20.97946,4.43197l7.88054,0c0.52543,0 0.78745,0.26271 0.78745,0.78814c0,0.52525 -0.2622,0.78831 -0.78745,0.78831l-7.88054,0c-0.52525,0 -0.78797,-0.26306 -0.78797,-0.78831c-0.00017,-0.52543 0.26254,-0.78814 0.78797,-0.78814zm6.72325,53.2142c-0.7721,0.77089 -1.69944,1.15694 -2.78324,1.15694c-1.08328,0 -2.01063,-0.38605 -2.78238,-1.15694c-0.77175,-0.77227 -1.15763,-1.70013 -1.15763,-2.78273c0,-1.0838 0.38639,-2.01132 1.15763,-2.7829c0.77124,-0.77089 1.69927,-1.15815 2.78238,-1.15815c1.08397,0 2.01132,0.38726 2.78324,1.15815c0.77158,0.77158 1.15711,1.6991 1.15711,2.7829s-0.38605,2.01063 -1.15711,2.78273zm11.40086,-10.66223c0,0.42624 -0.15577,0.79694 -0.46816,1.10812c-0.31274,0.3117 -0.68119,0.46695 -1.10743,0.46695l-25.21617,0c-0.42676,0 -0.79607,-0.15577 -1.10795,-0.46695s-0.46781,-0.68188 -0.46781,-1.10812l0,-34.67126c0,-0.42676 0.15577,-0.79642 0.46781,-1.10795c0.31205,-0.31136 0.68119,-0.46816 1.10795,-0.46816l25.21496,0c0.42745,0 0.79625,0.15611 1.10864,0.46816c0.31239,0.3117 0.46747,0.68119 0.46747,1.10795l0,34.67109l0.00069,0l0,0.00017z"/>
  </g>
  <g id="svg_3"/>
  <g id="svg_4"/>
  <g id="svg_5"/>
  <g id="svg_6"/>
  <g id="svg_7"/>
  <g id="svg_8"/>
  <g id="svg_9"/>
  <g id="svg_10"/>
  <g id="svg_11"/>
  <g id="svg_12"/>
  <g id="svg_13"/>
  <g id="svg_14"/>
  <g id="svg_15"/>
  <g id="svg_16"/>
  <g id="svg_17"/>
 </g>
</svg>