<svg width="24" height="24" xmlns="http://www.w3.org/2000/svg" clip-rule="evenodd" xml:space="preserve" version="1.1">

 <g>
  <title>Layer 1</title>
  <path fill="#ffffff" stroke="null" id="svg_1" d="m21.05726,0c1.61755,0 2.93075,1.31325 2.93075,2.93075l0,18.12651c0,1.6175 -1.31325,2.93075 -2.93075,2.93075l-18.12651,0c-1.6175,0 -2.93075,-1.31325 -2.93075,-2.93075l0,-18.12651c0,-1.6175 1.3132,-2.93075 2.93075,-2.93075l18.12651,0zm-11.89688,19.89056c6.36896,0 9.85139,-5.2775 9.85139,-9.85139c0,-0.15077 0,-0.30158 -0.00717,-0.44518c0.67494,-0.48824 1.26373,-1.09858 1.73046,-1.79507c-0.6175,0.27286 -1.28528,0.45957 -1.98894,0.54573c0.71805,-0.43085 1.26373,-1.10579 1.52221,-1.91717c-0.66773,0.39491 -1.40733,0.68216 -2.19715,0.8401c-0.63189,-0.67494 -1.52942,-1.09141 -2.52746,-1.09141c-1.91,0 -3.46093,1.55098 -3.46093,3.46093c0,0.27286 0.02872,0.53851 0.09333,0.78982c-2.87931,-0.1436 -5.42832,-1.52221 -7.13723,-3.61886c-0.29442,0.50979 -0.46674,1.10574 -0.46674,1.73763c0,1.19912 0.61034,2.26181 1.54376,2.87931c-0.56723,-0.01438 -1.09858,-0.17232 -1.56531,-0.43085l0,0.0431c0,1.68019 1.19195,3.07318 2.77881,3.39627c-0.2872,0.07899 -0.59595,0.1221 -0.91192,0.1221c-0.22259,0 -0.43797,-0.02155 -0.65339,-0.06466c0.43802,1.37865 1.71608,2.37669 3.23112,2.40541c-1.18474,0.9263 -2.67822,1.47915 -4.30098,1.47915c-0.28003,0 -0.5529,-0.01434 -0.82576,-0.05027c1.51504,0.99091 3.33883,1.56531 5.29189,1.56531z"/>
 </g>
</svg>