<svg width="64" height="64" xmlns="http://www.w3.org/2000/svg" xml:space="preserve" version="1.1">

 <g>
  <title>Layer 1</title>
  <g stroke="null" id="svg_1">
   <path fill="#ffffff" id="svg_2" clip-rule="evenodd" fill-rule="evenodd" d="m4.26779,2.10526l55.38218,0c1.0527,0 2.0181,0.43648 2.71647,1.13486l0,0l0.00514,0.00514l0.00514,0.00514l0.00514,0.00514c0.69838,0.70351 1.12972,1.66378 1.12972,2.71647l0,53.03544c0,1.06297 -0.43648,2.02837 -1.13486,2.72674c-0.69838,0.69838 -1.66378,1.13486 -2.72674,1.13486l-55.38218,0c-1.0527,0 -2.0181,-0.43135 -2.72161,-1.13486l-0.00514,-0.00514l-0.00514,-0.00514l-0.00514,-0.00514c-0.69838,-0.70351 -1.12972,-1.66378 -1.12972,-2.71647l0,-53.04057c0.01027,-1.06297 0.44162,-2.02837 1.13999,-2.72674c0.04108,-0.04108 0.08216,-0.08216 0.12838,-0.11811c0.6881,-0.62648 1.60215,-1.01162 2.59837,-1.01162l0,0zm29.92743,50.70923c-0.81135,0 -1.46864,-0.71378 -1.46864,-1.59702c0,-0.88324 0.65729,-1.59702 1.46864,-1.59702l18.08586,0c0.81135,0 1.46864,0.71378 1.46864,1.59702c0,0.88324 -0.65729,1.59702 -1.46864,1.59702l-18.08586,0l0,0zm-23.0926,0c-0.80108,0 -1.45324,-0.71378 -1.45324,-1.59702c0,-0.88324 0.65216,-1.59702 1.45324,-1.59702l16.76614,0c0.80108,0 1.45324,0.71378 1.45324,1.59702c0,0.88324 -0.65216,1.59702 -1.45324,1.59702l-16.76614,0l0,0zm-0.58027,-6.97862c-0.80108,0 -1.45324,-0.71378 -1.45324,-1.59702c0,-0.88324 0.65216,-1.59702 1.45324,-1.59702l16.76614,0c0.80108,0 1.45324,0.71378 1.45324,1.59702c0,0.88324 -0.65216,1.59702 -1.45324,1.59702l-16.76614,0l0,0zm23.67287,0c-0.81135,0 -1.46864,-0.71378 -1.46864,-1.59702c0,-0.88324 0.65729,-1.59702 1.46864,-1.59702l18.08586,0c0.81135,0 1.46864,0.71378 1.46864,1.59702c0,0.88324 -0.65729,1.59702 -1.46864,1.59702l-18.08586,0l0,0zm-24.75124,-25.87583l44.13115,0l0,17.27965l-44.13115,0l0,-17.27965l0,0zm50.58085,-4.02593c-0.12324,0.02054 -0.24649,0.03081 -0.36973,0.03081l-55.38732,0c-0.12838,0 -0.25162,-0.01027 -0.36973,-0.03081l0,43.06305c0,0.1027 0.04108,0.19513 0.1027,0.26189l0,0l0.00514,0.00514c0.06676,0.06676 0.15405,0.1027 0.26189,0.1027l55.38218,0c0.09757,0 0.19,-0.04108 0.26189,-0.11297c0.06676,-0.06676 0.11297,-0.15919 0.11297,-0.26189l0,-43.05791l0,0zm-33.87633,-8.8478c1.38648,0 2.50593,1.12459 2.50593,2.50593s-1.12459,2.50593 -2.50593,2.50593s-2.50593,-1.12459 -2.50593,-2.50593s1.12459,-2.50593 2.50593,-2.50593l0,0zm-8.76564,0c1.38648,0 2.50593,1.12459 2.50593,2.50593s-1.12459,2.50593 -2.50593,2.50593c-1.38648,0 -2.50593,-1.12459 -2.50593,-2.50593s1.12459,-2.50593 2.50593,-2.50593l0,0zm-8.7605,0c1.38648,0 2.50593,1.12459 2.50593,2.50593s-1.12459,2.50593 -2.50593,2.50593c-1.38648,0 -2.50593,-1.12459 -2.50593,-2.50593s1.11945,-2.50593 2.50593,-2.50593l0,0z" class="st0"/>
  </g>
 </g>
</svg>