<svg width="24" height="24" xmlns="http://www.w3.org/2000/svg" clip-rule="evenodd" xml:space="preserve" version="1.1">

 <g>
  <title>Layer 1</title>
  <path fill="#ffffff" stroke="null" id="svg_1" d="m21.03652,0c1.61596,0 2.92787,1.31196 2.92787,2.92787l0,18.10865c0,1.61591 -1.31196,2.92787 -2.92787,2.92787l-18.10865,0c-1.61591,0 -2.92787,-1.31196 -2.92787,-2.92787l0,-18.10865c0,-1.61591 1.31191,-2.92787 2.92787,-2.92787l18.10865,0zm-2.74622,5.9772c-1.58399,-1.58582 -3.69047,-2.45953 -5.93484,-2.46047c-4.62433,0 -8.388,3.76339 -8.38983,8.38913c-0.00061,1.47872 0.38572,2.92197 1.11991,4.19433l-1.19022,4.34748l4.4475,-1.16663c1.22541,0.66838 2.60514,1.02069 4.00926,1.02111l0.00346,0c4.62386,0 8.38782,-3.76377 8.38974,-8.38955c0.00084,-2.24175 -0.87105,-4.34963 -2.45499,-5.9354zm-5.93479,12.9081l-0.00281,0c-1.2513,-0.00047 -2.47854,-0.33667 -3.54916,-0.97201l-0.25467,-0.15113l-2.63917,0.69235l0.70442,-2.57322l-0.16578,-0.26384c-0.69801,-1.11023 -1.06674,-2.39344 -1.06618,-3.71106c0.00154,-3.84469 3.12974,-6.97265 6.97616,-6.97265c1.86253,0.00066 3.61333,0.72694 4.92997,2.04502c1.31654,1.31804 2.04114,3.07006 2.04044,4.93329c-0.00159,3.84502 -3.12969,6.97322 -6.97322,6.97326zm3.82499,-5.2226c-0.20964,-0.10494 -1.2403,-0.61198 -1.43243,-0.682c-0.19214,-0.06997 -0.3319,-0.10489 -0.47166,0.10489c-0.13976,0.20983 -0.54149,0.68205 -0.66379,0.822c-0.12226,0.13985 -0.24456,0.15745 -0.45415,0.05242c-0.20964,-0.10489 -0.88509,-0.32623 -1.68579,-1.04049c-0.62317,-0.55586 -1.04395,-1.24231 -1.1662,-1.45219c-0.12226,-0.20988 -0.01306,-0.32333 0.09188,-0.4278c0.09436,-0.09394 0.20969,-0.24489 0.31449,-0.36728c0.10484,-0.1224 0.13976,-0.20988 0.20964,-0.34973c0.06988,-0.13995 0.03496,-0.2623 -0.01751,-0.36724c-0.05238,-0.10489 -0.47166,-1.13681 -0.64634,-1.55656c-0.17014,-0.40875 -0.34294,-0.35338 -0.47166,-0.35984c-0.12212,-0.00608 -0.26202,-0.0074 -0.40173,-0.0074c-0.13976,0 -0.36691,0.05247 -0.55904,0.2623c-0.19214,0.20988 -0.73368,0.71706 -0.73368,1.74884c0,1.03187 0.75113,2.02864 0.85593,2.16859c0.10484,0.13995 1.47821,2.25729 3.58113,3.16531c0.50012,0.21601 0.89061,0.345 1.19508,0.44156c0.50213,0.15961 0.95914,0.13709 1.32033,0.08308c0.40276,-0.06014 1.2403,-0.50704 1.41498,-0.99672c0.17468,-0.48977 0.17468,-0.90948 0.12226,-0.99686c-0.05238,-0.08748 -0.19214,-0.13995 -0.40173,-0.24489z"/>
 </g>
</svg>