<svg width="24" height="24" xmlns="http://www.w3.org/2000/svg">

 <g>
  <title>Layer 1</title>
  <path fill="#ffffff" stroke="null" id="svg_2" d="m20.58125,6.07435l-4.27535,0l0,-2.13767c0,-1.18106 -0.95661,-2.13767 -2.13767,-2.13767l-4.27535,0c-1.18106,0 -2.13767,0.95661 -2.13767,2.13767l0,2.13767l-4.27535,0c-1.18106,0 -2.12699,0.95661 -2.12699,2.13767l-0.01069,11.7572c0,1.18106 0.95661,2.13767 2.13767,2.13767l17.10139,0c1.18106,0 2.13767,-0.95661 2.13767,-2.13767l0,-11.7572c0,-1.18106 -0.95661,-2.13767 -2.13767,-2.13767zm-6.41302,0l-4.27535,0l0,-2.13767l4.27535,0l0,2.13767z"/>
 </g>
</svg>