<svg xmlns="http://www.w3.org/2000/svg" version="1.1" xmlns:xlink="http://www.w3.org/1999/xlink" xmlns:svgjs="http://svgjs.com/svgjs" width="1920" height="1080" preserveAspectRatio="none" viewBox="0 0 1920 1080"><g mask="url(&quot;#SvgjsMask1050&quot;)" fill="none"><rect width="1920" height="1080" x="0" y="0" fill="#0e2a47"></rect><path d="M33 1080L1113 0L1774.5 0L694.5 1080z" fill="url(#SvgjsLinearGradient1051)"></path><path d="M683.6 1080L1763.6 0L2659.1 0L1579.1 1080z" fill="url(#SvgjsLinearGradient1051)"></path><path d="M1891 1080L811 0L328 0L1408 1080z" fill="url(#SvgjsLinearGradient1052)"></path><path d="M1197.4 1080L117.40000000000009 0L-475.0999999999999 0L604.9000000000001 1080z" fill="url(#SvgjsLinearGradient1052)"></path><path d="M949.60324121391 1080L1920 109.60324121391L1920 1080z" fill="url(#SvgjsLinearGradient1051)"></path><path d="M0 1080L970.39675878609 1080L 0 109.60324121391z" fill="url(#SvgjsLinearGradient1052)"></path></g><defs><mask id="SvgjsMask1050"><rect width="1920" height="1080" fill="#ffffff"></rect></mask><linearGradient x1="0%" y1="100%" x2="100%" y2="0%" id="SvgjsLinearGradient1051"><stop stop-color="rgba(15, 70, 185, 0.2)" offset="0"></stop><stop stop-opacity="0" stop-color="rgba(15, 70, 185, 0.2)" offset="0.66"></stop></linearGradient><linearGradient x1="100%" y1="100%" x2="0%" y2="0%" id="SvgjsLinearGradient1052"><stop stop-color="rgba(15, 70, 185, 0.2)" offset="0"></stop><stop stop-opacity="0" stop-color="rgba(15, 70, 185, 0.2)" offset="0.66"></stop></linearGradient></defs></svg>